<svg id="Layer_1" data-name="Layer 1" xmlns="http://www.w3.org/2000/svg" viewBox="0 0 224 165.11"><defs><style>.cls-1{fill:none;stroke:#fff;stroke-miterlimit:10;}</style></defs><title>Box</title><path class="cls-1" d="M62.08,54.7V75.41a10,10,0,0,0,.16,1.74l22.54-9.53V45.25H71.54A9.45,9.45,0,0,0,62.08,54.7Z"/><path class="cls-1" d="M100.51,45.25H87.27V66.57L110,57V54.7A9.46,9.46,0,0,0,100.51,45.25Z"/><polygon class="cls-1" points="87.27 84.86 99.99 84.86 99.99 119.86 109.97 119.86 109.97 75.41 109.97 65.41 109.97 60.23 87.27 69.83 87.27 84.86"/><path class="cls-1" d="M71.54,84.86H84.78v-14L63.26,80A9.45,9.45,0,0,0,71.54,84.86Z"/><path class="cls-1" d="M161.86,53.63,139.22,71.17V84.86h13.24a9.45,9.45,0,0,0,9.46-9.45V54.7A9.46,9.46,0,0,0,161.86,53.63Z"/><polygon class="cls-1" points="114.03 65.97 114.03 75.41 114.03 119.86 124.01 119.86 124.01 84.86 136.73 84.86 136.73 70.53 114.03 60.76 114.03 65.97"/><path class="cls-1" d="M114,54.7v2.8l22.74,9.79v-22H123.44A9.45,9.45,0,0,0,114,54.7Z"/><path class="cls-1" d="M152.42,45.25h-13.2v22.1l21.69-16.81A9.46,9.46,0,0,0,152.42,45.25Z"/></svg>